<?xml version="1.0" standalone="no"?>
<!DOCTYPE svg PUBLIC "-//W3C//DTD SVG 1.1//EN" "http://www.w3.org/Graphics/SVG/1.1/DTD/svg11.dtd">
<svg width="800" height="600" version="1.1" xmlns="http://www.w3.org/2000/svg">
<style>text{font-family:Arial}</style>
<rect width="800" height="600" x="0" y="0" fill="rgb(238,238,238)"/>
<rect width="800" height="600" x="0" y="0" fill="rgb(255,255,255)"/>
<text x="2" y="566" fill="rgb(0,0,0)" font-size="12">0</text>
<text x="2" y="512" fill="rgb(0,0,0)" font-size="12">25</text>
<text x="2" y="457" fill="rgb(0,0,0)" font-size="12">50</text>
<text x="2" y="402" fill="rgb(0,0,0)" font-size="12">75</text>
<text x="2" y="347" fill="rgb(0,0,0)" font-size="12">100</text>
<text x="2" y="292" fill="rgb(0,0,0)" font-size="12">125</text>
<text x="2" y="237" fill="rgb(0,0,0)" font-size="12">150</text>
<text x="2" y="183" fill="rgb(0,0,0)" font-size="12">175</text>
<text x="2" y="128" fill="rgb(0,0,0)" font-size="12">200</text>
<text x="2" y="73" fill="rgb(0,0,0)" font-size="12">225</text>
<text x="282" y="30" fill="rgb(0,0,0)" font-size="12">Quality score distribution over all sequences</text>
<line x1="29" y1="560" x2="790" y2="560" stroke="rgb(0,0,0)" stroke-width="2"/>
<line x1="29" y1="560" x2="29" y2="40" stroke="rgb(0,0,0)" stroke-width="2"/>
<text x="293" y="595" fill="rgb(0,0,0)" font-size="12">Mean Sequence Quality (Phred Score)</text>
<text x="43" y="575" fill="rgb(0,0,0)" font-size="12">13</text>
<rect width="44" height="520" x="73" y="40" fill="rgb(230,230,230)"/>
<text x="87" y="575" fill="rgb(0,0,0)" font-size="12">14</text>
<text x="131" y="575" fill="rgb(0,0,0)" font-size="12">15</text>
<rect width="44" height="520" x="161" y="40" fill="rgb(230,230,230)"/>
<text x="175" y="575" fill="rgb(0,0,0)" font-size="12">16</text>
<text x="219" y="575" fill="rgb(0,0,0)" font-size="12">17</text>
<rect width="44" height="520" x="249" y="40" fill="rgb(230,230,230)"/>
<text x="263" y="575" fill="rgb(0,0,0)" font-size="12">18</text>
<text x="307" y="575" fill="rgb(0,0,0)" font-size="12">19</text>
<rect width="44" height="520" x="337" y="40" fill="rgb(230,230,230)"/>
<text x="351" y="575" fill="rgb(0,0,0)" font-size="12">20</text>
<text x="395" y="575" fill="rgb(0,0,0)" font-size="12">21</text>
<rect width="44" height="520" x="425" y="40" fill="rgb(230,230,230)"/>
<text x="439" y="575" fill="rgb(0,0,0)" font-size="12">22</text>
<text x="483" y="575" fill="rgb(0,0,0)" font-size="12">23</text>
<rect width="44" height="520" x="513" y="40" fill="rgb(230,230,230)"/>
<text x="527" y="575" fill="rgb(0,0,0)" font-size="12">24</text>
<text x="571" y="575" fill="rgb(0,0,0)" font-size="12">25</text>
<rect width="44" height="520" x="601" y="40" fill="rgb(230,230,230)"/>
<text x="615" y="575" fill="rgb(0,0,0)" font-size="12">26</text>
<text x="659" y="575" fill="rgb(0,0,0)" font-size="12">27</text>
<rect width="44" height="520" x="689" y="40" fill="rgb(230,230,230)"/>
<text x="703" y="575" fill="rgb(0,0,0)" font-size="12">28</text>
<text x="747" y="575" fill="rgb(0,0,0)" font-size="12">29</text>
<line x1="29" y1="560" x2="790" y2="560" stroke="rgb(180,180,180)" stroke-width="2"/>
<line x1="29" y1="506" x2="790" y2="506" stroke="rgb(180,180,180)" stroke-width="2"/>
<line x1="29" y1="451" x2="790" y2="451" stroke="rgb(180,180,180)" stroke-width="2"/>
<line x1="29" y1="396" x2="790" y2="396" stroke="rgb(180,180,180)" stroke-width="2"/>
<line x1="29" y1="341" x2="790" y2="341" stroke="rgb(180,180,180)" stroke-width="2"/>
<line x1="29" y1="286" x2="790" y2="286" stroke="rgb(180,180,180)" stroke-width="2"/>
<line x1="29" y1="231" x2="790" y2="231" stroke="rgb(180,180,180)" stroke-width="2"/>
<line x1="29" y1="177" x2="790" y2="177" stroke="rgb(180,180,180)" stroke-width="2"/>
<line x1="29" y1="122" x2="790" y2="122" stroke="rgb(180,180,180)" stroke-width="2"/>
<line x1="29" y1="67" x2="790" y2="67" stroke="rgb(180,180,180)" stroke-width="2"/>
<polyline points="51,558 95,554 139,550 183,517 227,464 271,363 315,234 359,80 403,40 447,203 491,376 535,449 579,519 623,554 667,556 711,556 755,556" stroke="rgb(136,34,85)" stroke-width="2" fill="none"/>
<rect width="160" height="23" x="630" y="40" fill="rgb(255,255,255)"/>
<rect width="160" height="23" x="630" y="40" rx="0" ry="0" fill="none" stroke="rgb(192,192,192)"/>
<text x="633" y="55" fill="rgb(136,34,85)" font-size="12" font-weight="bold">Average Quality per read</text>
</svg>
