<?xml version="1.0" standalone="no"?>
<!DOCTYPE svg PUBLIC "-//W3C//DTD SVG 1.1//EN" "http://www.w3.org/Graphics/SVG/1.1/DTD/svg11.dtd">
<svg width="800" height="600" version="1.1" xmlns="http://www.w3.org/2000/svg">
<rect width="800" height="600" x="0" y="0" style="fill:rgb(238,238,238);stroke:none"/>
<rect width="800" height="600" x="0" y="0" style="fill:rgb(255,255,255);stroke:none"/>
<text x="2" y="566" fill="rgb(0,0,0)" font-family="Arial" font-size="12">0</text>
<text x="2" y="463" fill="rgb(0,0,0)" font-family="Arial" font-size="12">200</text>
<text x="2" y="360" fill="rgb(0,0,0)" font-family="Arial" font-size="12">400</text>
<text x="2" y="257" fill="rgb(0,0,0)" font-family="Arial" font-size="12">600</text>
<text x="2" y="154" fill="rgb(0,0,0)" font-family="Arial" font-size="12">800</text>
<text x="2" y="51" fill="rgb(0,0,0)" font-family="Arial" font-size="12">1000</text>
<text x="265" y="30" fill="rgb(0,0,0)" font-family="Arial" font-size="12">Distribution of sequence lengths over all sequences</text>
<line x1="37" y1="560" x2="790" y2="560" stroke="rgb(0,0,0)" stroke-width="1"/>
<line x1="37" y1="560" x2="37" y2="40" stroke="rgb(0,0,0)" stroke-width="1"/>
<text x="338" y="595" fill="rgb(0,0,0)" font-family="Arial" font-size="12">Sequence Length (bp)</text>
<text x="154" y="575" fill="rgb(0,0,0)" font-family="Arial" font-size="12">49</text>
<rect width="251" height="520" x="288" y="40" style="fill:rgb(230,230,230);stroke:none"/>
<text x="405" y="575" fill="rgb(0,0,0)" font-family="Arial" font-size="12">50</text>
<text x="656" y="575" fill="rgb(0,0,0)" font-family="Arial" font-size="12">51</text>
<line x1="37" y1="560" x2="790" y2="560" stroke="rgb(180,180,180)" stroke-width="1"/>
<line x1="37" y1="457" x2="790" y2="457" stroke="rgb(180,180,180)" stroke-width="1"/>
<line x1="37" y1="354" x2="790" y2="354" stroke="rgb(180,180,180)" stroke-width="1"/>
<line x1="37" y1="251" x2="790" y2="251" stroke="rgb(180,180,180)" stroke-width="1"/>
<line x1="37" y1="148" x2="790" y2="148" stroke="rgb(180,180,180)" stroke-width="1"/>
<line x1="37" y1="45" x2="790" y2="45" stroke="rgb(180,180,180)" stroke-width="1"/>
<line x1="162" y1="560" x2="413" y2="40" stroke="rgb(136,34,85)" stroke-width="1"/>
<line x1="413" y1="40" x2="664" y2="560" stroke="rgb(136,34,85)" stroke-width="1"/>
<rect width="111" height="23" x="679" y="40" style="fill:rgb(255,255,255);stroke:none"/>
<rect width="111" height="23" x="679" y="40" rx="0" ry="0" style="fill:none;stroke-width:1;stroke:rgb(192,192,192)"/>
<text x="682" y="55" fill="rgb(136,34,85)" font-family="Arial" font-size="12" font-weight="bold">Sequence Length</text>
</svg>
